<svg xmlns="http://www.w3.org/2000/svg" width="805" height="600"><rect width="805" height="600" x="0" y="0" fill="#FFFFFF" id="backgorund"/><g transform="translate(10,10)" id="viz"><g id="links"><path d="M0,406.7034314285625C107.5,406.7034314285625,107.5,242.48577585949752,215,242.48577585949752" fill="none" stroke="#ccc"/><path d="M0,406.7034314285625C107.5,406.7034314285625,107.5,512.9535429244909,215,512.9535429244909" fill="none" stroke="#ccc"/><path d="M0,406.7034314285625C107.5,406.7034314285625,107.5,570.9210869976274,215,570.9210869976274" fill="none" stroke="#ccc"/><path d="M215,242.48577585949752C322.5,242.48577585949752,322.5,63.97839165956139,430,63.97839165956139" fill="none" stroke="#ccc"/><path d="M215,242.48577585949752C322.5,242.48577585949752,322.5,169.50124170056716,430,169.50124170056716" fill="none" stroke="#ccc"/><path d="M215,242.48577585949752C322.5,242.48577585949752,322.5,239.55965963299496,430,239.55965963299496" fill="none" stroke="#ccc"/><path d="M215,242.48577585949752C322.5,242.48577585949752,322.5,298.17365475847856,430,298.17365475847856" fill="none" stroke="#ccc"/><path d="M215,242.48577585949752C322.5,242.48577585949752,322.5,344.2892952056059,430,344.2892952056059" fill="none" stroke="#ccc"/><path d="M215,242.48577585949752C322.5,242.48577585949752,322.5,368.92544361669127,430,368.92544361669127" fill="none" stroke="#ccc"/><path d="M215,242.48577585949752C322.5,242.48577585949752,322.5,389.9432063674505,430,389.9432063674505" fill="none" stroke="#ccc"/><path d="M215,242.48577585949752C322.5,242.48577585949752,322.5,408.5731785826404,430,408.5731785826404" fill="none" stroke="#ccc"/><path d="M215,242.48577585949752C322.5,242.48577585949752,322.5,420.9931600594337,430,420.9931600594337" fill="none" stroke="#ccc"/><path d="M215,512.9535429244909C322.5,512.9535429244909,322.5,471.0893433064735,430,471.0893433064735" fill="none" stroke="#ccc"/><path d="M215,512.9535429244909C322.5,512.9535429244909,322.5,530.116616813423,430,530.116616813423" fill="none" stroke="#ccc"/><path d="M215,512.9535429244909C322.5,512.9535429244909,322.5,554.8177425425082,430,554.8177425425082" fill="none" stroke="#ccc"/><path d="M215,570.9210869976274C322.5,570.9210869976274,322.5,570.9210869976274,430,570.9210869976274" fill="none" stroke="#ccc"/><path d="M430,63.97839165956139C537.5,63.97839165956139,537.5,9.078913002372506,645,9.078913002372506" fill="none" stroke="#ccc"/><path d="M430,63.97839165956139C537.5,63.97839165956139,537.5,27.236739007117517,645,27.236739007117517" fill="none" stroke="#ccc"/><path d="M430,63.97839165956139C537.5,63.97839165956139,537.5,44.4323015550496,645,44.4323015550496" fill="none" stroke="#ccc"/><path d="M430,63.97839165956139C537.5,63.97839165956139,537.5,61.62786410298168,645,61.62786410298168" fill="none" stroke="#ccc"/><path d="M430,63.97839165956139C537.5,63.97839165956139,537.5,77.73120855810092,645,77.73120855810092" fill="none" stroke="#ccc"/><path d="M430,63.97839165956139C537.5,63.97839165956139,537.5,92.74233492040722,645,92.74233492040722" fill="none" stroke="#ccc"/><path d="M430,63.97839165956139C537.5,63.97839165956139,537.5,106.45788883995701,645,106.45788883995701" fill="none" stroke="#ccc"/><path d="M430,63.97839165956139C537.5,63.97839165956139,537.5,118.87787031675028,645,118.87787031675028" fill="none" stroke="#ccc"/><path d="M430,169.50124170056716C537.5,169.50124170056716,537.5,135.51785844869607,645,135.51785844869607" fill="none" stroke="#ccc"/><path d="M430,169.50124170056716C537.5,169.50124170056716,537.5,155.50790057302424,645,155.50790057302424" fill="none" stroke="#ccc"/><path d="M430,169.50124170056716C537.5,169.50124170056716,537.5,173.6657265777693,645,173.6657265777693" fill="none" stroke="#ccc"/><path d="M430,169.50124170056716C537.5,169.50124170056716,537.5,189.7690710328885,645,189.7690710328885" fill="none" stroke="#ccc"/><path d="M430,169.50124170056716C537.5,169.50124170056716,537.5,203.48462495243828,645,203.48462495243828" fill="none" stroke="#ccc"/><path d="M430,239.55965963299496C537.5,239.55965963299496,537.5,219.2546604216139,645,219.2546604216139" fill="none" stroke="#ccc"/><path d="M430,239.55965963299496C537.5,239.55965963299496,537.5,235.02469589078953,645,235.02469589078953" fill="none" stroke="#ccc"/><path d="M430,239.55965963299496C537.5,239.55965963299496,537.5,247.44467736758276,645,247.44467736758276" fill="none" stroke="#ccc"/><path d="M430,239.55965963299496C537.5,239.55965963299496,537.5,259.864658844376,645,259.864658844376" fill="none" stroke="#ccc"/><path d="M430,298.17365475847856C537.5,298.17365475847856,537.5,274.67243085673863,645,274.67243085673863" fill="none" stroke="#ccc"/><path d="M430,298.17365475847856C537.5,298.17365475847856,537.5,289.4802028691013,645,289.4802028691013" fill="none" stroke="#ccc"/><path d="M430,298.17365475847856C537.5,298.17365475847856,537.5,301.90018434589456,645,301.90018434589456" fill="none" stroke="#ccc"/><path d="M430,298.17365475847856C537.5,298.17365475847856,537.5,312.63174294293356,645,312.63174294293356" fill="none" stroke="#ccc"/><path d="M430,298.17365475847856C537.5,298.17365475847856,537.5,321.67487866021844,645,321.67487866021844" fill="none" stroke="#ccc"/><path d="M430,344.2892952056059C537.5,344.2892952056059,537.5,335.75649124963985,645,335.75649124963985" fill="none" stroke="#ccc"/><path d="M430,344.2892952056059C537.5,344.2892952056059,537.5,352.822099161572,645,352.822099161572" fill="none" stroke="#ccc"/><path d="M430,368.92544361669127C537.5,368.92544361669127,537.5,368.92544361669127,645,368.92544361669127" fill="none" stroke="#ccc"/><path d="M430,389.9432063674505C537.5,389.9432063674505,537.5,383.7332156290539,645,383.7332156290539" fill="none" stroke="#ccc"/><path d="M430,389.9432063674505C537.5,389.9432063674505,537.5,396.15319710584714,645,396.15319710584714" fill="none" stroke="#ccc"/><path d="M430,408.5731785826404C537.5,408.5731785826404,537.5,408.5731785826404,645,408.5731785826404" fill="none" stroke="#ccc"/><path d="M430,420.9931600594337C537.5,420.9931600594337,537.5,420.9931600594337,645,420.9931600594337" fill="none" stroke="#ccc"/><path d="M430,471.0893433064735C537.5,471.0893433064735,537.5,436.7631955286093,645,436.7631955286093" fill="none" stroke="#ccc"/><path d="M430,471.0893433064735C537.5,471.0893433064735,537.5,454.92102153335435,645,454.92102153335435" fill="none" stroke="#ccc"/><path d="M430,471.0893433064735C537.5,471.0893433064735,537.5,472.1165840812864,645,472.1165840812864" fill="none" stroke="#ccc"/><path d="M430,471.0893433064735C537.5,471.0893433064735,537.5,489.3121466292185,645,489.3121466292185" fill="none" stroke="#ccc"/><path d="M430,471.0893433064735C537.5,471.0893433064735,537.5,505.4154910843377,645,505.4154910843377" fill="none" stroke="#ccc"/><path d="M430,530.116616813423C537.5,530.116616813423,537.5,521.5188355394569,645,521.5188355394569" fill="none" stroke="#ccc"/><path d="M430,530.116616813423C537.5,530.116616813423,537.5,538.714398087389,645,538.714398087389" fill="none" stroke="#ccc"/><path d="M430,554.8177425425082C537.5,554.8177425425082,537.5,554.8177425425082,645,554.8177425425082" fill="none" stroke="#ccc"/><path d="M430,570.9210869976274C537.5,570.9210869976274,537.5,570.9210869976274,645,570.9210869976274" fill="none" stroke="#ccc"/></g><g id="nodes"><g transform="translate(0,406.7034314285625)"><circle fill="#ccc" r="45.27692569068709"/><text text-anchor="end" dominant-baseline="text-before-edge" transform="translate(0,0)"><tspan x="-47.27692569068709" y="0" dy="0" style="font-family: Arial, sans-serif; font-size: 10px; fill: black; font-weight: normal;"/></text></g><g id="Felinae" transform="translate(215,242.48577585949752)"><circle fill="#ccc" r="38.29708431025353"/><text text-anchor="end" dominant-baseline="text-before-edge" transform="translate(0,-5.714285850524902)"><tspan x="-40.29708431025353" y="0" dy="0" style="font-family: Arial, sans-serif; font-size: 10px; fill: black; font-weight: normal;">Felinae</tspan></text></g><g id="Pantherinae" transform="translate(215,512.9535429244909)"><circle fill="#ccc" r="22.73030282830976"/><text text-anchor="end" dominant-baseline="text-before-edge" transform="translate(0,-5.714285850524902)"><tspan x="-24.73030282830976" y="0" dy="0" style="font-family: Arial, sans-serif; font-size: 10px; fill: black; font-weight: normal;">Pantherinae</tspan></text></g><g id="Acinonychinae" transform="translate(215,570.9210869976274)"><circle fill="rgb(77, 175, 98)" r="8.16496580927726"/><text text-anchor="end" dominant-baseline="text-before-edge" transform="translate(0,-5.714285850524902)"><tspan x="-10.16496580927726" y="0" dy="0" style="font-family: Arial, sans-serif; font-size: 10px; fill: black; font-weight: normal;">Acinonychinae</tspan></text></g><g id="Leopardus" transform="translate(430,63.97839165956139)"><circle fill="#ccc" r="21.213203435596427"/><text text-anchor="end" dominant-baseline="text-before-edge" transform="translate(0,-5.714285850524902)"><tspan x="-23.213203435596427" y="0" dy="0" style="font-family: Arial, sans-serif; font-size: 10px; fill: black; font-weight: normal;">Leopardus</tspan></text></g><g id="Prionailurus" transform="translate(430,169.50124170056716)"><circle fill="#ccc" r="18.25741858350554"/><text text-anchor="end" dominant-baseline="text-before-edge" transform="translate(0,-5.714285850524902)"><tspan x="-20.25741858350554" y="0" dy="0" style="font-family: Arial, sans-serif; font-size: 10px; fill: black; font-weight: normal;">Prionailurus</tspan></text></g><g id="Lynx" transform="translate(430,239.55965963299496)"><circle fill="#ccc" r="13.540064007726603"/><text text-anchor="end" dominant-baseline="text-before-edge" transform="translate(0,-5.714285850524902)"><tspan x="-15.540064007726603" y="0" dy="0" style="font-family: Arial, sans-serif; font-size: 10px; fill: black; font-weight: normal;">Lynx</tspan></text></g><g id="Felis" transform="translate(430,298.17365475847856)"><circle fill="#ccc" r="12.909944487358057"/><text text-anchor="end" dominant-baseline="text-before-edge" transform="translate(0,-5.714285850524902)"><tspan x="-14.909944487358057" y="0" dy="0" style="font-family: Arial, sans-serif; font-size: 10px; fill: black; font-weight: normal;">Felis</tspan></text></g><g id="Catopuma" transform="translate(430,344.2892952056059)"><circle fill="#ccc" r="11.547005383792516"/><text text-anchor="end" dominant-baseline="text-before-edge" transform="translate(0,-5.714285850524902)"><tspan x="-13.547005383792516" y="0" dy="0" style="font-family: Arial, sans-serif; font-size: 10px; fill: black; font-weight: normal;">Catopuma</tspan></text></g><g id="Profelis" transform="translate(430,368.92544361669127)"><circle fill="rgb(77, 175, 98)" r="8.16496580927726"/><text text-anchor="end" dominant-baseline="text-before-edge" transform="translate(0,-5.714285850524902)"><tspan x="-10.16496580927726" y="0" dy="0" style="font-family: Arial, sans-serif; font-size: 10px; fill: black; font-weight: normal;">Profelis</tspan></text></g><g id="Puma" transform="translate(430,389.9432063674505)"><circle fill="rgb(211, 238, 205)" r="8.16496580927726"/><text text-anchor="end" dominant-baseline="text-before-edge" transform="translate(0,-5.714285850524902)"><tspan x="-10.16496580927726" y="0" dy="0" style="font-family: Arial, sans-serif; font-size: 10px; fill: black; font-weight: normal;">Puma</tspan></text></g><g id="Leptailurus" transform="translate(430,408.5731785826404)"><circle fill="rgb(211, 238, 205)" r="5.773502691896258"/><text text-anchor="end" dominant-baseline="text-before-edge" transform="translate(0,-5.714285850524902)"><tspan x="-7.773502691896258" y="0" dy="0" style="font-family: Arial, sans-serif; font-size: 10px; fill: black; font-weight: normal;">Leptailurus</tspan></text></g><g id="Otocolobus" transform="translate(430,420.9931600594337)"><circle fill="rgb(211, 238, 205)" r="5.773502691896258"/><text text-anchor="end" dominant-baseline="text-before-edge" transform="translate(0,-5.714285850524902)"><tspan x="-7.773502691896258" y="0" dy="0" style="font-family: Arial, sans-serif; font-size: 10px; fill: black; font-weight: normal;">Otocolobus</tspan></text></g><g id="Panthera" transform="translate(430,471.0893433064735)"><circle fill="#ccc" r="18.25741858350554"/><text text-anchor="end" dominant-baseline="text-before-edge" transform="translate(0,-5.714285850524902)"><tspan x="-20.25741858350554" y="0" dy="0" style="font-family: Arial, sans-serif; font-size: 10px; fill: black; font-weight: normal;">Panthera</tspan></text></g><g id="Neofelis" transform="translate(430,530.116616813423)"><circle fill="rgb(77, 175, 98)" r="11.547005383792516"/><text text-anchor="end" dominant-baseline="text-before-edge" transform="translate(0,-5.714285850524902)"><tspan x="-13.547005383792516" y="0" dy="0" style="font-family: Arial, sans-serif; font-size: 10px; fill: black; font-weight: normal;">Neofelis</tspan></text></g><g id="Pardofelis" transform="translate(430,554.8177425425082)"><circle fill="rgb(151, 212, 148)" r="7.0710678118654755"/><text text-anchor="end" dominant-baseline="text-before-edge" transform="translate(0,-5.714285850524902)"><tspan x="-9.071067811865476" y="0" dy="0" style="font-family: Arial, sans-serif; font-size: 10px; fill: black; font-weight: normal;">Pardofelis</tspan></text></g><g id="Acinonyx" transform="translate(430,570.9210869976274)"><circle fill="rgb(77, 175, 98)" r="8.16496580927726"/><text text-anchor="end" dominant-baseline="text-before-edge" transform="translate(0,-5.714285850524902)"><tspan x="-10.16496580927726" y="0" dy="0" style="font-family: Arial, sans-serif; font-size: 10px; fill: black; font-weight: normal;">Acinonyx</tspan></text></g><g id="Andean mountain cat" transform="translate(645,9.078913002372506)"><circle fill="rgb(21, 127, 59)" r="9.12870929175277"/><text text-anchor="start" dominant-baseline="text-before-edge" transform="translate(0,-5.714285850524902)"><tspan x="11.12870929175277" y="0" dy="0" style="font-family: Arial, sans-serif; font-size: 10px; fill: black; font-weight: bold;">Andean mountain cat</tspan></text></g><g id="Kodkod" transform="translate(645,27.236739007117517)"><circle fill="rgb(77, 175, 98)" r="8.16496580927726"/><text text-anchor="start" dominant-baseline="text-before-edge" transform="translate(0,-5.714285850524902)"><tspan x="10.16496580927726" y="0" dy="0" style="font-family: Arial, sans-serif; font-size: 10px; fill: black; font-weight: bold;">Kodkod</tspan></text></g><g id="Southern oncilla" transform="translate(645,44.4323015550496)"><circle fill="rgb(77, 175, 98)" r="8.16496580927726"/><text text-anchor="start" dominant-baseline="text-before-edge" transform="translate(0,-5.714285850524902)"><tspan x="10.16496580927726" y="0" dy="0" style="font-family: Arial, sans-serif; font-size: 10px; fill: black; font-weight: bold;">Southern oncilla</tspan></text></g><g id="little spotted cat" transform="translate(645,61.62786410298168)"><circle fill="rgb(77, 175, 98)" r="8.16496580927726"/><text text-anchor="start" dominant-baseline="text-before-edge" transform="translate(0,-5.714285850524902)"><tspan x="10.16496580927726" y="0" dy="0" style="font-family: Arial, sans-serif; font-size: 10px; fill: black; font-weight: bold;">little spotted cat</tspan></text></g><g id="Colocolo" transform="translate(645,77.73120855810092)"><circle fill="rgb(151, 212, 148)" r="7.0710678118654755"/><text text-anchor="start" dominant-baseline="text-before-edge" transform="translate(0,-5.714285850524902)"><tspan x="9.071067811865476" y="0" dy="0" style="font-family: Arial, sans-serif; font-size: 10px; fill: black; font-weight: bold;">Colocolo</tspan></text></g><g id="margay" transform="translate(645,92.74233492040722)"><circle fill="rgb(151, 212, 148)" r="7.0710678118654755"/><text text-anchor="start" dominant-baseline="text-before-edge" transform="translate(0,-5.714285850524902)"><tspan x="9.071067811865476" y="0" dy="0" style="font-family: Arial, sans-serif; font-size: 10px; fill: black; font-weight: bold;">margay</tspan></text></g><g id="Geoffroy's cat" transform="translate(645,106.45788883995701)"><circle fill="rgb(211, 238, 205)" r="5.773502691896258"/><text text-anchor="start" dominant-baseline="text-before-edge" transform="translate(0,-5.714285850524902)"><tspan x="7.773502691896258" y="0" dy="0" style="font-family: Arial, sans-serif; font-size: 10px; fill: black; font-weight: bold;">Geoffroy's cat</tspan></text></g><g id="ocelot" transform="translate(645,118.87787031675028)"><circle fill="rgb(211, 238, 205)" r="5.773502691896258"/><text text-anchor="start" dominant-baseline="text-before-edge" transform="translate(0,-5.714285850524902)"><tspan x="7.773502691896258" y="0" dy="0" style="font-family: Arial, sans-serif; font-size: 10px; fill: black; font-weight: bold;">ocelot</tspan></text></g><g id="Iriomote cat" transform="translate(645,135.51785844869607)"><circle fill="rgb(0, 68, 27)" r="10"/><text text-anchor="start" dominant-baseline="text-before-edge" transform="translate(0,-5.714285850524902)"><tspan x="12" y="0" dy="0" style="font-family: Arial, sans-serif; font-size: 10px; fill: black; font-weight: bold;">Iriomote cat</tspan></text></g><g id="flat-headed cat" transform="translate(645,155.50790057302424)"><circle fill="rgb(21, 127, 59)" r="9.12870929175277"/><text text-anchor="start" dominant-baseline="text-before-edge" transform="translate(0,-5.714285850524902)"><tspan x="11.12870929175277" y="0" dy="0" style="font-family: Arial, sans-serif; font-size: 10px; fill: black; font-weight: bold;">flat-headed cat</tspan></text></g><g id="fishing cat" transform="translate(645,173.6657265777693)"><circle fill="rgb(77, 175, 98)" r="8.16496580927726"/><text text-anchor="start" dominant-baseline="text-before-edge" transform="translate(0,-5.714285850524902)"><tspan x="10.16496580927726" y="0" dy="0" style="font-family: Arial, sans-serif; font-size: 10px; fill: black; font-weight: bold;">fishing cat</tspan></text></g><g id="rusty-spotted cat" transform="translate(645,189.7690710328885)"><circle fill="rgb(151, 212, 148)" r="7.0710678118654755"/><text text-anchor="start" dominant-baseline="text-before-edge" transform="translate(0,-5.714285850524902)"><tspan x="9.071067811865476" y="0" dy="0" style="font-family: Arial, sans-serif; font-size: 10px; fill: black; font-weight: bold;">rusty-spotted cat</tspan></text></g><g id="leopard cat" transform="translate(645,203.48462495243828)"><circle fill="rgb(211, 238, 205)" r="5.773502691896258"/><text text-anchor="start" dominant-baseline="text-before-edge" transform="translate(0,-5.714285850524902)"><tspan x="7.773502691896258" y="0" dy="0" style="font-family: Arial, sans-serif; font-size: 10px; fill: black; font-weight: bold;">leopard cat</tspan></text></g><g id="Spanish lynx" transform="translate(645,219.2546604216139)"><circle fill="rgb(21, 127, 59)" r="9.12870929175277"/><text text-anchor="start" dominant-baseline="text-before-edge" transform="translate(0,-5.714285850524902)"><tspan x="11.12870929175277" y="0" dy="0" style="font-family: Arial, sans-serif; font-size: 10px; fill: black; font-weight: bold;">Spanish lynx</tspan></text></g><g id="Canada lynx" transform="translate(645,235.02469589078953)"><circle fill="rgb(211, 238, 205)" r="5.773502691896258"/><text text-anchor="start" dominant-baseline="text-before-edge" transform="translate(0,-5.714285850524902)"><tspan x="7.773502691896258" y="0" dy="0" style="font-family: Arial, sans-serif; font-size: 10px; fill: black; font-weight: bold;">Canada lynx</tspan></text></g><g id="Eurasian lynx" transform="translate(645,247.44467736758276)"><circle fill="rgb(211, 238, 205)" r="5.773502691896258"/><text text-anchor="start" dominant-baseline="text-before-edge" transform="translate(0,-5.714285850524902)"><tspan x="7.773502691896258" y="0" dy="0" style="font-family: Arial, sans-serif; font-size: 10px; fill: black; font-weight: bold;">Eurasian lynx</tspan></text></g><g id="bobcat" transform="translate(645,259.864658844376)"><circle fill="rgb(211, 238, 205)" r="5.773502691896258"/><text text-anchor="start" dominant-baseline="text-before-edge" transform="translate(0,-5.714285850524902)"><tspan x="7.773502691896258" y="0" dy="0" style="font-family: Arial, sans-serif; font-size: 10px; fill: black; font-weight: bold;">bobcat</tspan></text></g><g id="black-footed cat" transform="translate(645,274.67243085673863)"><circle fill="rgb(77, 175, 98)" r="8.16496580927726"/><text text-anchor="start" dominant-baseline="text-before-edge" transform="translate(0,-5.714285850524902)"><tspan x="10.16496580927726" y="0" dy="0" style="font-family: Arial, sans-serif; font-size: 10px; fill: black; font-weight: bold;">black-footed cat</tspan></text></g><g id="jungle cat" transform="translate(645,289.4802028691013)"><circle fill="rgb(211, 238, 205)" r="5.773502691896258"/><text text-anchor="start" dominant-baseline="text-before-edge" transform="translate(0,-5.714285850524902)"><tspan x="7.773502691896258" y="0" dy="0" style="font-family: Arial, sans-serif; font-size: 10px; fill: black; font-weight: bold;">jungle cat</tspan></text></g><g id="sand cat" transform="translate(645,301.90018434589456)"><circle fill="rgb(211, 238, 205)" r="5.773502691896258"/><text text-anchor="start" dominant-baseline="text-before-edge" transform="translate(0,-5.714285850524902)"><tspan x="7.773502691896258" y="0" dy="0" style="font-family: Arial, sans-serif; font-size: 10px; fill: black; font-weight: bold;">sand cat</tspan></text></g><g id="domestic cat" transform="translate(645,312.63174294293356)"><circle fill="rgb(247, 252, 245)" r="4.08248290463863"/><text text-anchor="start" dominant-baseline="text-before-edge" transform="translate(0,-5.714285850524902)"><tspan x="6.08248290463863" y="0" dy="0" style="font-family: Arial, sans-serif; font-size: 10px; fill: black; font-weight: bold;">domestic cat</tspan></text></g><g id="wild cat" transform="translate(645,321.67487866021844)"><circle fill="rgb(247, 252, 245)" r="4.08248290463863"/><text text-anchor="start" dominant-baseline="text-before-edge" transform="translate(0,-5.714285850524902)"><tspan x="6.08248290463863" y="0" dy="0" style="font-family: Arial, sans-serif; font-size: 10px; fill: black; font-weight: bold;">wild cat</tspan></text></g><g id="bay cat" transform="translate(645,335.75649124963985)"><circle fill="rgb(21, 127, 59)" r="9.12870929175277"/><text text-anchor="start" dominant-baseline="text-before-edge" transform="translate(0,-5.714285850524902)"><tspan x="11.12870929175277" y="0" dy="0" style="font-family: Arial, sans-serif; font-size: 10px; fill: black; font-weight: bold;">bay cat</tspan></text></g><g id="Asiatic golden cat" transform="translate(645,352.822099161572)"><circle fill="rgb(151, 212, 148)" r="7.0710678118654755"/><text text-anchor="start" dominant-baseline="text-before-edge" transform="translate(0,-5.714285850524902)"><tspan x="9.071067811865476" y="0" dy="0" style="font-family: Arial, sans-serif; font-size: 10px; fill: black; font-weight: bold;">Asiatic golden cat</tspan></text></g><g id="African golden cat" transform="translate(645,368.92544361669127)"><circle fill="rgb(77, 175, 98)" r="8.16496580927726"/><text text-anchor="start" dominant-baseline="text-before-edge" transform="translate(0,-5.714285850524902)"><tspan x="10.16496580927726" y="0" dy="0" style="font-family: Arial, sans-serif; font-size: 10px; fill: black; font-weight: bold;">African golden cat</tspan></text></g><g id="puma" transform="translate(645,383.7332156290539)"><circle fill="rgb(211, 238, 205)" r="5.773502691896258"/><text text-anchor="start" dominant-baseline="text-before-edge" transform="translate(0,-5.714285850524902)"><tspan x="7.773502691896258" y="0" dy="0" style="font-family: Arial, sans-serif; font-size: 10px; fill: black; font-weight: bold;">puma</tspan></text></g><g id="jaguarundi" transform="translate(645,396.15319710584714)"><circle fill="rgb(211, 238, 205)" r="5.773502691896258"/><text text-anchor="start" dominant-baseline="text-before-edge" transform="translate(0,-5.714285850524902)"><tspan x="7.773502691896258" y="0" dy="0" style="font-family: Arial, sans-serif; font-size: 10px; fill: black; font-weight: bold;">jaguarundi</tspan></text></g><g id="serval" transform="translate(645,408.5731785826404)"><circle fill="rgb(211, 238, 205)" r="5.773502691896258"/><text text-anchor="start" dominant-baseline="text-before-edge" transform="translate(0,-5.714285850524902)"><tspan x="7.773502691896258" y="0" dy="0" style="font-family: Arial, sans-serif; font-size: 10px; fill: black; font-weight: bold;">serval</tspan></text></g><g id="Pallas's cat" transform="translate(645,420.9931600594337)"><circle fill="rgb(211, 238, 205)" r="5.773502691896258"/><text text-anchor="start" dominant-baseline="text-before-edge" transform="translate(0,-5.714285850524902)"><tspan x="7.773502691896258" y="0" dy="0" style="font-family: Arial, sans-serif; font-size: 10px; fill: black; font-weight: bold;">Pallas's cat</tspan></text></g><g id="tiger" transform="translate(645,436.7631955286093)"><circle fill="rgb(21, 127, 59)" r="9.12870929175277"/><text text-anchor="start" dominant-baseline="text-before-edge" transform="translate(0,-5.714285850524902)"><tspan x="11.12870929175277" y="0" dy="0" style="font-family: Arial, sans-serif; font-size: 10px; fill: black; font-weight: bold;">tiger</tspan></text></g><g id="lion" transform="translate(645,454.92102153335435)"><circle fill="rgb(77, 175, 98)" r="8.16496580927726"/><text text-anchor="start" dominant-baseline="text-before-edge" transform="translate(0,-5.714285850524902)"><tspan x="10.16496580927726" y="0" dy="0" style="font-family: Arial, sans-serif; font-size: 10px; fill: black; font-weight: bold;">lion</tspan></text></g><g id="leopard" transform="translate(645,472.1165840812864)"><circle fill="rgb(77, 175, 98)" r="8.16496580927726"/><text text-anchor="start" dominant-baseline="text-before-edge" transform="translate(0,-5.714285850524902)"><tspan x="10.16496580927726" y="0" dy="0" style="font-family: Arial, sans-serif; font-size: 10px; fill: black; font-weight: bold;">leopard</tspan></text></g><g id="snow leopard" transform="translate(645,489.3121466292185)"><circle fill="rgb(77, 175, 98)" r="8.16496580927726"/><text text-anchor="start" dominant-baseline="text-before-edge" transform="translate(0,-5.714285850524902)"><tspan x="10.16496580927726" y="0" dy="0" style="font-family: Arial, sans-serif; font-size: 10px; fill: black; font-weight: bold;">snow leopard</tspan></text></g><g id="jaguar" transform="translate(645,505.4154910843377)"><circle fill="rgb(151, 212, 148)" r="7.0710678118654755"/><text text-anchor="start" dominant-baseline="text-before-edge" transform="translate(0,-5.714285850524902)"><tspan x="9.071067811865476" y="0" dy="0" style="font-family: Arial, sans-serif; font-size: 10px; fill: black; font-weight: bold;">jaguar</tspan></text></g><g id="Sunda clouded leopard" transform="translate(645,521.5188355394569)"><circle fill="rgb(77, 175, 98)" r="8.16496580927726"/><text text-anchor="start" dominant-baseline="text-before-edge" transform="translate(0,-5.714285850524902)"><tspan x="10.16496580927726" y="0" dy="0" style="font-family: Arial, sans-serif; font-size: 10px; fill: black; font-weight: bold;">Sunda clouded leopard</tspan></text></g><g id="Clouded leopard" transform="translate(645,538.714398087389)"><circle fill="rgb(77, 175, 98)" r="8.16496580927726"/><text text-anchor="start" dominant-baseline="text-before-edge" transform="translate(0,-5.714285850524902)"><tspan x="10.16496580927726" y="0" dy="0" style="font-family: Arial, sans-serif; font-size: 10px; fill: black; font-weight: bold;">Clouded leopard</tspan></text></g><g id="marbled cat" transform="translate(645,554.8177425425082)"><circle fill="rgb(151, 212, 148)" r="7.0710678118654755"/><text text-anchor="start" dominant-baseline="text-before-edge" transform="translate(0,-5.714285850524902)"><tspan x="9.071067811865476" y="0" dy="0" style="font-family: Arial, sans-serif; font-size: 10px; fill: black; font-weight: bold;">marbled cat</tspan></text></g><g id="cheetah" transform="translate(645,570.9210869976274)"><circle fill="rgb(77, 175, 98)" r="8.16496580927726"/><text text-anchor="start" dominant-baseline="text-before-edge" transform="translate(0,-5.714285850524902)"><tspan x="10.16496580927726" y="0" dy="0" style="font-family: Arial, sans-serif; font-size: 10px; fill: black; font-weight: bold;">cheetah</tspan></text></g></g></g></svg>